<svg width="550" height="496" viewBox="0 0 550 496" fill="none" xmlns="http://www.w3.org/2000/svg">
<path d="M429.692 0C439.804 170.568 442.049 263.696 274.984 334.961C107.918 263.696 106.983 170.568 117.094 0H429.692Z" fill="#660066"/>
<path d="M550 30.0606H461.916V57.974H517.774V152.45C501.57 192.155 488.931 209.652 446.876 214.719L440.431 246.926C510.671 231.959 531.666 208.881 550 152.45V30.0606Z" fill="#660066"/>
<path d="M0 30.0606H88.0845V57.974H32.2264V152.45C48.4299 192.155 61.0692 209.652 103.124 214.719L109.569 246.926C24.0537 228.817 17.6351 200.403 0 152.45V30.0606Z" fill="#660066"/>
<path d="M320.1 390.788V334.961L274.984 356.433L229.867 334.961V390.788C179.355 392.038 164.602 406.866 167.564 463.792H117.082V496H429.68V463.792H380.255C384.95 413.461 376.38 393.936 320.1 390.788Z" fill="#660066"/>
</svg>
